<svg xmlns="http://www.w3.org/2000/svg" viewBox="0 0 100 100" width="200px" height="200px"><path fill="#ee3e54" d="M12.875,27.958c-1.105,0-2,0.895-2,2s0.895,2,2,2s2-0.895,2-2S13.98,27.958,12.875,27.958z"/><path fill="#f1bc19" d="M76.875,12.958c-0.551,0-1,0.449-1,1s0.449,1,1,1s1-0.449,1-1S77.426,12.958,76.875,12.958z"/><path fill="#fce0a2" d="M49.875,13.958c-20.434,0-37,16.566-37,37s16.566,37,37,37s37-16.566,37-37 S70.309,13.958,49.875,13.958z"/><path fill="#f1bc19" d="M82.875,11.958c-2.211,0-4,1.789-4,4s1.789,4,4,4s4-1.789,4-4S85.086,11.958,82.875,11.958z"/><path fill="#ee3e54" d="M86.875,22.958c-1.105,0-2,0.895-2,2s0.895,2,2,2s2-0.895,2-2S87.98,22.958,86.875,22.958z"/><path fill="#fbcd59" d="M80.875,74.958c-1.105,0-2,0.895-2,2s0.895,2,2,2s2-0.895,2-2S81.98,74.958,80.875,74.958z M14.875,59.958c-2.211,0-4,1.789-4,4c0,2.211,1.789,4,4,4s4-1.789,4-4C18.875,61.747,17.086,59.958,14.875,59.958z"/><path fill="#ee3e54" d="M24.875,85.958c-1.105,0-2,0.895-2,2s0.895,2,2,2s2-0.895,2-2S25.98,85.958,24.875,85.958z"/><path fill="#fff" d="M17.375,42.958c-1.379,0-2.5,1.121-2.5,2.5s1.121,2.5,2.5,2.5s2.5-1.121,2.5-2.5 S18.754,42.958,17.375,42.958z"/><path fill="#f1bc19" d="M20.875,65.958c-0.551,0-1,0.449-1,1s0.449,1,1,1s1-0.449,1-1S21.426,65.958,20.875,65.958z"/><path fill="#fff" d="M81.875,37.958c-0.551,0-1,0.449-1,1s0.449,1,1,1s1-0.449,1-1S82.426,37.958,81.875,37.958z"/><g><path fill="#00a5a5" d="M71.5,49.5c0-8.334-5.561-22-22.244-22C28.022,27.5,26,48.5,26,48.5 c9.269-13,31.102-18.462,31.766-2H40.148c0.678-3.187,1.86-5.831,3.041-7c-25.278,13-6.067,48.25,24.267,33.25c0,0,0-6.25,0-10.25 c-19.301,7.86-26.171,1.22-27.591-7H71.5C71.5,55.5,71.5,53.5,71.5,49.5z"/><path fill="#472b29" d="M53.145,76.871c-9.355,0.001-16.662-4.928-20.082-11.709c-4.054-8.037-2.686-19.636,9.897-26.107 c0.22-0.112,0.489-0.048,0.633,0.151c0.145,0.2,0.123,0.475-0.053,0.649c-1.053,1.042-2.114,3.413-2.768,6.145h16.464 c-0.326-4.612-2.468-7.631-6.217-8.748C43.817,35.106,32.318,40.5,26.407,48.79c-0.132,0.185-0.37,0.257-0.583,0.178 c-0.212-0.079-0.344-0.291-0.322-0.516C25.523,48.238,27.816,27,49.255,27C65.943,27,72,40.456,72,49.5v6 c0,0.276-0.224,0.5-0.5,0.5H40.469c0.563,2.693,1.965,6.062,5.396,7.965c4.682,2.597,11.882,1.949,21.402-1.928 c0.153-0.065,0.329-0.046,0.467,0.048c0.138,0.093,0.221,0.249,0.221,0.415v10.25c0,0.19-0.108,0.364-0.278,0.448 C62.503,75.757,57.592,76.871,53.145,76.871z M41.521,41.014c-10.212,6.301-11.191,16.51-7.565,23.698 c4.794,9.508,17.648,15.173,33,7.727v-9.199c-9.477,3.749-16.733,4.288-21.576,1.6c-3.19-1.77-5.268-4.97-6.008-9.254 c-0.025-0.146,0.015-0.294,0.11-0.407C39.577,55.065,39.717,55,39.864,55H71v-5.5C71,40.857,65.209,28,49.255,28 c-16.704,0-21.277,13.452-22.413,18.588c6.465-7.792,17.25-12.444,24.464-10.294c3.023,0.901,6.686,3.399,6.959,10.186 c0.005,0.136-0.044,0.268-0.139,0.366C58.032,46.944,57.902,47,57.766,47H40.147c-0.151,0-0.293-0.068-0.389-0.186 c-0.095-0.117-0.132-0.271-0.101-0.418C40.099,44.326,40.762,42.435,41.521,41.014z"/></g><g><path fill="#472b29" d="M68.969,53.438c-0.138,0-0.25-0.112-0.25-0.25c0-5.063-0.874-9.395-2.597-12.874 c-0.061-0.124-0.011-0.273,0.113-0.335c0.123-0.061,0.273-0.011,0.335,0.113c1.757,3.548,2.648,7.955,2.648,13.096 C69.219,53.325,69.107,53.438,68.969,53.438z"/></g><g><path fill="#472b29" d="M65.016,38.169c-0.08,0-0.158-0.038-0.207-0.109c-1.822-2.674-4.26-4.705-7.247-6.033 c-0.126-0.056-0.183-0.204-0.127-0.33c0.056-0.126,0.203-0.183,0.33-0.127c3.074,1.367,5.583,3.457,7.457,6.209 c0.078,0.114,0.048,0.27-0.066,0.347C65.114,38.155,65.065,38.169,65.016,38.169z"/></g><g><path fill="#472b29" d="M55.28,31.172c-0.023,0-0.047-0.003-0.071-0.01c-1.88-0.556-3.918-0.849-5.893-0.849 c-0.138,0-0.25-0.112-0.25-0.25s0.112-0.25,0.25-0.25c2.022,0,4.109,0.301,6.035,0.87c0.132,0.039,0.208,0.178,0.169,0.311 C55.487,31.102,55.388,31.172,55.28,31.172z"/></g><g><path fill="#472b29" d="M39.077,68.321c-0.062,0-0.124-0.022-0.172-0.069c-1.393-1.328-2.644-2.911-3.716-4.705 c-0.071-0.118-0.033-0.271,0.086-0.343c0.117-0.069,0.271-0.033,0.343,0.087c1.05,1.755,2.272,3.303,3.632,4.6 c0.1,0.095,0.104,0.253,0.009,0.354C39.209,68.295,39.143,68.321,39.077,68.321z"/></g><g><path fill="#472b29" d="M48.975,73.322c-0.016,0-0.031-0.001-0.046-0.004c-2.893-0.541-5.518-1.631-7.803-3.24 c-0.113-0.079-0.14-0.235-0.061-0.348c0.08-0.113,0.235-0.141,0.349-0.061c2.226,1.566,4.785,2.629,7.606,3.156 c0.136,0.025,0.225,0.156,0.2,0.292C49.198,73.238,49.093,73.322,48.975,73.322z"/></g><g><path fill="#472b29" d="M53.399,73.72c-0.548,0-1.106-0.017-1.673-0.054c-0.138-0.009-0.242-0.127-0.233-0.266 c0.009-0.138,0.147-0.249,0.266-0.232c5.889,0.369,10.824-1.4,12.674-2.185c0.126-0.055,0.274,0.006,0.328,0.133 c0.054,0.127-0.005,0.274-0.132,0.328C62.923,72.166,58.641,73.72,53.399,73.72z"/></g></svg>