<?xml version="1.0" encoding="UTF-8"?>
<svg width="54px" height="54px" viewBox="0 0 54 54" version="1.1" xmlns="http://www.w3.org/2000/svg" xmlns:xlink="http://www.w3.org/1999/xlink">
    <g id="page-1" stroke="none" stroke-width="1" fill="#fff" fill-rule="evenodd">
        <g id="edit-group-3" transform="translate(27.000000, 27.000000) scale(-1, 1) translate(-27.000000, -27.000000) ">
            <path d="M8,0 L46,0 C50.418278,-8.11624501e-16 54,3.581722 54,8 L54,46 C54,50.418278 50.418278,54 46,54 L8,54 C3.581722,54 5.41083001e-16,50.418278 0,46 L0,8 C-5.41083001e-16,3.581722 3.581722,8.11624501e-16 8,0 Z M15.5741658,13.7978541 C15.8465834,13.2573454 16,12.6465889 16,12 C16,9.790861 14.209139,8 12,8 C9.790861,8 8,9.790861 8,12 C8,14.209139 9.790861,16 12,16 C12.8211074,16 13.5844293,15.7525909 14.2194851,15.3282532 C15.0108737,15.9177501 15.7453268,16.5512573 16.4228445,17.2287749 C17.2415684,18.0474988 17.9728965,18.9262354 18.6168289,19.8649847 C18.2261397,20.4827786 18,21.2149804 18,22 C18,24.209139 19.790861,26 22,26 C22.7145763,26 23.3853887,25.8126244 23.965984,25.4843264 C24.696057,26.0409065 25.3790487,26.6371518 26.014959,27.2730621 C26.913346,28.1714491 27.7168372,29.148076 28.4254327,30.2029429 C28.1532658,30.7432549 28,31.3537289 28,32 C28,34.209139 29.790861,36 32,36 C32.7273449,36 33.4093478,35.8058683 33.9970208,35.4665929 C34.7967284,36.1041836 35.5424149,36.7688116 36.2340801,37.4604768 C37.0702226,38.2966194 37.8231832,39.1680387 38.4929618,40.0747347 C38.178748,40.6458863 38,41.3020688 38,42 C38,44.209139 39.790861,46 42,46 C44.209139,46 46,44.209139 46,42 C46,39.790861 44.209139,38 42,38 C41.2927735,38 40.6284152,38.1835409 40.0519597,38.5055882 C38.9767613,37.749456 38.0005901,36.9328178 37.123446,36.0556737 C36.5012408,35.4334685 35.9288959,34.7808493 35.4064112,34.0978162 C35.7828142,33.4879164 36,32.7693214 36,32 C36,29.790861 34.209139,28 32,28 C31.2875552,28 30.6186135,28.1862594 30.0392139,28.5127396 C29.0486018,27.8115376 28.1111929,27.0188337 27.2269871,26.134628 C26.5600912,25.4677321 25.957125,24.7824482 25.4180885,24.0787763 C25.7873025,23.472983 26,22.7613306 26,22 C26,19.790861 24.209139,18 22,18 C21.3659753,18 20.7664039,18.1475123 20.2337338,18.4100889 C19.3559115,17.730215 18.521667,16.9949448 17.7310005,16.2042782 C17.0060893,15.479367 16.2871444,14.6772256 15.5741658,13.7978541 Z" id="形状结合" fill="#FFBE00"></path>
            <g id="edit-group" transform="translate(5.000000, 5.000000)" fill="#FFF0C7">
                <rect id="矩形备份-4" x="12.9166667" y="3" width="8.25" height="8.25" rx="4.125"></rect>
                <rect id="矩形备份" x="3" y="12.9166667" width="8.25" height="8.25" rx="4.125"></rect>
                <rect id="矩形备份-2" x="3" y="22.8333333" width="8.25" height="8.25" rx="4.125"></rect>
                <rect id="矩形备份-6" x="12.9166667" y="22.8333333" width="8.25" height="8.25" rx="4.125"></rect>
                <rect id="矩形备份-3" x="3" y="32.75" width="8.25" height="8.25" rx="4.125"></rect>
                <rect id="矩形备份-7" x="12.9166667" y="32.75" width="8.25" height="8.25" rx="4.125"></rect>
                <rect id="矩形备份-11" x="22.8333333" y="3" width="8.25" height="8.25" rx="4.125"></rect>
                <rect id="矩形备份-10" x="22.8333333" y="12.9166667" width="8.25" height="8.25" rx="4.125"></rect>
                <rect id="矩形备份-8" x="22.8333333" y="32.75" width="8.25" height="8.25" rx="4.125"></rect>
                <rect id="矩形备份-15" x="32.75" y="3" width="8.25" height="8.25" rx="4.125"></rect>
                <rect id="矩形备份-14" x="32.75" y="12.9166667" width="8.25" height="8.25" rx="4.125"></rect>
                <rect id="矩形备份-13" x="32.75" y="22.8333333" width="8.25" height="8.25" rx="4.125"></rect>
            </g>
        </g>
    </g>
</svg>